<svg xmlns="http://www.w3.org/2000/svg" viewBox="0 0 58 40"><g fill="#1A7DFF" fill-rule="evenodd"><path d="M.133 0h57.734c.074 0 .133.06.133.133v39.734c0 .074-.06.133-.133.133H.133C.06 40 0 39.94 0 39.867V.133C0 .06.06 0 .133 0zm3.854 3.98c-.037 0-.066.03-.066.066v31.908c0 .036.03.066.067.066h49.756c.036 0 .066-.03.066-.066V4.046c0-.036-.03-.066-.067-.066H3.987z"></path><path d="M37.35 28.127c-4.863 0-8.514-3.55-8.514-8.117 0-4.61 3.695-8.202 8.557-8.202 4.863 0 8.514 3.548 8.514 8.116 0 4.61-3.695 8.203-8.558 8.203zm.043-3.403c2.733 0 4.628-2.12 4.628-4.714v-.043c0-2.595-1.938-4.757-4.67-4.757-2.733 0-4.628 2.12-4.628 4.714v.043c0 2.595 1.94 4.757 4.67 4.757zm-17.11 3.403c-4.686 0-8.25-3.546-8.25-8.117 0-4.637 3.564-8.202 8.38-8.202 2.738 0 4.624.792 6.32 2.43l.135.13c.05.05.054.13.007.184l-2.422 2.74c-.048.055-.132.06-.187.012l-.157-.14c-1.243-1.106-2.373-1.622-3.718-1.622-2.36 0-4.136 1.913-4.136 4.382 0 2.54 1.757 4.47 4.136 4.47 1.486 0 2.46-.47 3.827-1.688l.146-.13c.052-.048.132-.045.18.004l2.437 2.414c.05.05.052.133.002.186l-.132.14c-1.838 1.927-3.74 2.807-6.57 2.807z"></path></g></svg>